<?xml version="1.0" encoding="iso-8859-1"?>
<!-- Generator: Adobe Illustrator 19.0.0, SVG Export Plug-In . SVG Version: 6.00 Build 0)  -->
<svg version="1.1" id="Layer_1" xmlns="http://www.w3.org/2000/svg" xmlns:xlink="http://www.w3.org/1999/xlink" x="0px" y="0px"
	 viewBox="0 0 496.2 496.2" style="enable-background:new 0 0 496.2 496.2;" xml:space="preserve">
<path style="fill:#32BEA6;" d="M496.2,248.1C496.2,111.1,385.1,0,248.1,0S0,111.1,0,248.1s111.1,248.1,248.1,248.1
	S496.2,385.1,496.2,248.1z"/>
<path style="fill:#45484F;" d="M441.1,317c-16.5-151.8-50.6-179.2-50.6-179.2s-8.7-1.2-24.8-1.2s-26.4,1.2-26.4,1.2l-4.9,4.3
	l-86.3,0.6l-86.3-0.6l-4.9-4.3c0,0-10.4-1.2-26.4-1.2s-24.8,1.2-24.8,1.2S71.5,165.2,55.1,317c0,0-2.4,44.5,29.3,50.6
	c0,0,35.4,11.6,56.1-45.1l12.8-32.3c0,0,4.3-9.1,17.7-7.3h74.3h5.7h74.3c13.4-1.8,17.7,7.3,17.7,7.3l12.8,32.3
	c20.7,56.7,56.1,45.1,56.1,45.1C443.6,361.5,441.1,317,441.1,317z"/>
<circle style="fill:#2B2B2D;" cx="187.4" cy="258.3" r="34.4"/>
<circle style="fill:#717380;" cx="187.4" cy="253" r="34.4"/>
<path style="fill:#636268;" d="M107.7,137.4v-3c0,0,10.2-7.1,24.8-6.7c0,0,17.5,0.4,21.7,4.5v5.3h-46.5V137.4z"/>
<polygon style="fill:#ABADBA;" points="107.7,137.4 107.7,134.3 154.2,132.1 154.2,137.4 "/>
<polygon style="fill:#8E909B;" points="123.4,133.6 137.7,132.9 138,137.4 123.7,137.4 "/>
<circle cx="128.7" cy="200.1" r="44"/>
<g>
	<path style="fill:#1B1C1E;" d="M138.1,185.3c0,2.9-7.6,9.9-9.5,9.9c-1.9,0-9.5-7-9.5-9.9v-10.9c0-2.9,2.3-5.2,5.2-5.2h8.5
		c2.9,0,5.2,2.3,5.2,5.2v10.9H138.1z"/>
	<path style="fill:#1B1C1E;" d="M119.2,214.3c0-2.9,7.6-9.9,9.4-9.9c1.8,0,9.5,7,9.5,9.9v10.9c0,2.9-2.3,5.2-5.2,5.2h-8.5
		c-2.9,0-5.2-2.3-5.2-5.2C119.2,225.2,119.2,214.3,119.2,214.3z"/>
	<path style="fill:#1B1C1E;" d="M143.1,209.3c-2.9,0-9.9-7.6-9.9-9.4c0-1.8,7-9.5,9.9-9.5h11c2.9,0,5.2,2.3,5.2,5.2v8.5
		c0,2.9-2.3,5.2-5.2,5.2H143.1z"/>
</g>
<path style="fill:#3B3C3D;" d="M133.2,199.8c0,1.2,2.8,4.6,5.6,7v-14C136,195.2,133.2,198.7,133.2,199.8z"/>
<path style="fill:#1B1C1E;" d="M114.1,190.4c2.9,0,9.9,7.6,9.9,9.4s-7,9.4-9.9,9.4h-10.9c-2.9,0-5.2-2.3-5.2-5.2v-8.5
	c0-2.9,2.3-5.2,5.2-5.2h10.9V190.4z"/>
<g>
	<path style="fill:#3B3C3D;" d="M124.1,199.8c0-1.2-2.8-4.6-5.6-7v14C121.3,204.4,124.1,201,124.1,199.8z"/>
	<path style="fill:#3B3C3D;" d="M128.6,204.4c-1.2,0-4.6,2.8-7,5.6h14C133.2,207.2,129.8,204.4,128.6,204.4z"/>
	<path style="fill:#3B3C3D;" d="M128.6,195.2c1.2,0,4.6-2.8,7-5.6h-14C124,192.4,127.5,195.2,128.6,195.2z"/>
	<path style="fill:#3B3C3D;" d="M169.4,199.7l-5.5-5c-0.2-0.1-0.4-0.2-0.6-0.1c-0.2,0.1-0.3,0.3-0.3,0.5v10c0,0.2,0.1,0.4,0.3,0.5
		c0.1,0,0.1,0,0.2,0c0.1,0,0.3,0,0.4-0.1l5.5-5c0.1-0.1,0.2-0.2,0.2-0.4C169.6,199.9,169.5,199.8,169.4,199.7z"/>
	<path style="fill:#3B3C3D;" d="M88.1,200.4l5.5,5c0.2,0.1,0.4,0.2,0.6,0.1s0.3-0.3,0.3-0.5v-10c0-0.2-0.1-0.4-0.3-0.5
		c-0.1,0-0.1,0-0.2,0s-0.3,0-0.4,0.1l-5.5,5c-0.1,0.1-0.2,0.2-0.2,0.4S88,200.3,88.1,200.4z"/>
	<path style="fill:#3B3C3D;" d="M128.4,159.4l-5,5.5c-0.1,0.2-0.2,0.4-0.1,0.6s0.3,0.3,0.5,0.3h10c0.2,0,0.4-0.1,0.5-0.3
		c0-0.1,0-0.1,0-0.2c0-0.1,0-0.3-0.1-0.4l-5-5.5c-0.1-0.1-0.2-0.2-0.4-0.2S128.5,159.3,128.4,159.4z"/>
	<path style="fill:#3B3C3D;" d="M129.1,240.7l5-5.5c0.1-0.2,0.2-0.4,0.1-0.6s-0.3-0.3-0.5-0.3h-10c-0.2,0-0.4,0.1-0.5,0.3
		c0,0.1,0,0.1,0,0.2c0,0.1,0,0.3,0.1,0.4l5,5.5c0.1,0.1,0.2,0.2,0.4,0.2S129,240.8,129.1,240.7z"/>
</g>
<circle cx="187.4" cy="253" r="24.4"/>
<circle style="fill:#5C5E6A;" cx="187.4" cy="253" r="22.3"/>
<circle style="fill:#4F5159;" cx="187.4" cy="253" r="15.9"/>
<circle style="fill:#5C5E6A;" cx="187.4" cy="253" r="12.8"/>
<path style="fill:#5F6266;" d="M55.1,317c0,0-2.4,44.5,29.3,50.6c0,0,24.6,8,44.8-22.2c0,0-22.8-1.6-41.7-10.1s-32.1-19.8-32.1-19.8
	C55.2,316,55.1,316.5,55.1,317z"/>
<circle style="fill:#2B2B2D;" cx="308.8" cy="258.3" r="34.4"/>
<circle style="fill:#717380;" cx="308.8" cy="253" r="34.4"/>
<path style="fill:#636268;" d="M388.5,137.4v-3c0,0-10.2-7.1-24.8-6.7c0,0-17.5,0.4-21.7,4.5v5.3h46.5V137.4z"/>
<polygon style="fill:#ABADBA;" points="388.5,137.4 388.5,134.3 342,132.1 342,137.4 "/>
<polygon style="fill:#8E909B;" points="372.8,133.6 358.5,132.9 358.2,137.4 372.5,137.4 "/>
<circle cx="367.5" cy="200.1" r="44"/>
<circle cx="308.8" cy="253" r="24.4"/>
<circle style="fill:#5C5E6A;" cx="308.8" cy="253" r="22.3"/>
<circle style="fill:#4F5159;" cx="308.8" cy="253" r="15.9"/>
<circle style="fill:#5C5E6A;" cx="308.8" cy="253" r="12.8"/>
<path style="fill:#5F6266;" d="M441.1,317c0,0,2.4,44.5-29.3,50.6c0,0-24.6,8-44.8-22.2c0,0,22.8-1.6,41.7-10.1
	c18.9-8.5,32.1-19.8,32.1-19.8C441,316,441.1,316.5,441.1,317z"/>
<path style="fill:#181819;" d="M193.7,213.8h111.8c4,0,7.3-3.3,7.3-7.3v-64.3l-64.7,0.4l-61.8-0.4v64.3
	C186.3,210.5,189.6,213.8,193.7,213.8z"/>
<path style="fill:#2B2B2D;" d="M196.4,209.9h106.4c3.8,0,7-3.1,7-7v-60.7l-61.6,0.4l-58.7-0.4v60.7
	C189.4,206.7,192.5,209.9,196.4,209.9z"/>
<circle style="fill:#2B2D30;" cx="248.3" cy="255.6" r="10.2"/>
<g>
	<circle style="fill:#25292C;" cx="369.5" cy="173.1" r="12.2"/>
	<circle style="fill:#25292C;" cx="369.5" cy="229.6" r="12.2"/>
	<circle style="fill:#25292C;" cx="397.7" cy="201.4" r="12.2"/>
	<circle style="fill:#25292C;" cx="341.2" cy="201.4" r="12.2"/>
</g>
<path style="fill:#08B5AF;" d="M378,178.4h-16.9c-0.3,0-0.5-0.1-0.7-0.4c-0.1-0.2-0.1-0.5,0-0.8l8.3-14c0.1-0.2,0.4-0.4,0.7-0.4l0,0
	c0.3,0,0.5,0.1,0.7,0.4l8.5,14c0.1,0.2,0.1,0.5,0,0.8C378.5,178.2,378.3,178.4,378,178.4z M362.5,176.8h14.2l-7.2-11.8L362.5,176.8z
	"/>
<path style="fill:#F78D99;" d="M397.7,210.1c-4.9,0-8.9-4-8.9-8.9s4-8.9,8.9-8.9s8.9,4,8.9,8.9S402.6,210.1,397.7,210.1z
	 M397.7,193.8c-4.1,0-7.4,3.3-7.4,7.4s3.3,7.4,7.4,7.4s7.4-3.3,7.4-7.4S401.8,193.8,397.7,193.8z"/>
<path style="fill:#A4BAF6;" d="M370.6,229.6l6.5-6.2c0.3-0.3,0.3-0.8,0-1.1s-0.8-0.3-1.1,0l-6.6,6.2l-6.6-6.2
	c-0.3-0.3-0.8-0.3-1.1,0c-0.3,0.3-0.3,0.8,0,1.1l6.5,6.2l-6.5,6.2c-0.3,0.3-0.3,0.8,0,1.1c0.2,0.2,0.4,0.2,0.6,0.2s0.4-0.1,0.5-0.2
	l6.6-6.2l6.6,6.2c0.1,0.1,0.3,0.2,0.5,0.2s0.4-0.1,0.6-0.2c0.3-0.3,0.3-0.8,0-1.1L370.6,229.6z"/>
<path style="fill:#EFA8EA;" d="M348.3,193.3h-14c-0.4,0-0.8,0.3-0.8,0.8v13.6c0,0.4,0.3,0.8,0.8,0.8h14c0.4,0,0.8-0.3,0.8-0.8v-13.6
	C349.1,193.7,348.7,193.3,348.3,193.3z M347.6,206.9h-12.5v-12.1h12.5V206.9z"/>
<g>
</g>
<g>
</g>
<g>
</g>
<g>
</g>
<g>
</g>
<g>
</g>
<g>
</g>
<g>
</g>
<g>
</g>
<g>
</g>
<g>
</g>
<g>
</g>
<g>
</g>
<g>
</g>
<g>
</g>
</svg>
